<svg width="64" height="53" viewBox="0 0 64 53" fill="none" xmlns="http://www.w3.org/2000/svg">
<path d="M63.878 6.22739C61.524 7.26428 59.004 7.97765 56.348 8.30118C59.058 6.66747 61.13 4.08327 62.118 1.00474C59.576 2.49176 56.764 3.56884 53.774 4.17772C51.39 1.61362 47.982 0 44.2 0C36.95 0 31.074 5.90185 31.074 13.1762C31.074 14.2231 31.2 15.2279 31.418 16.1804C20.512 15.6679 10.844 10.4031 4.378 2.44956C3.242 4.3867 2.596 6.63732 2.596 9.08688C2.596 13.6705 4.918 17.6895 8.428 20.0526C6.282 19.9903 4.262 19.3935 2.492 18.4109V18.5696C2.492 24.9618 7.012 30.291 13.012 31.5047C11.918 31.7961 10.75 31.9649 9.564 31.9649C8.722 31.9649 7.918 31.8825 7.116 31.7338C8.804 36.9665 13.636 40.7764 19.396 40.891C14.918 44.4176 9.242 46.5195 3.126 46.5195C2.084 46.5195 1.044 46.4693 0 46.3427C5.834 50.0803 12.72 52.2667 20.158 52.2667C44.292 52.2667 57.48 32.1819 57.48 14.7878C57.48 14.2332 57.48 13.6685 57.438 13.1018C60.012 11.2591 62.24 8.92412 64 6.27763L63.878 6.22739Z" fill="#475569"/>
</svg>
